<svg width="121" height="22" viewBox="0 0 121 22" fill="none" xmlns="http://www.w3.org/2000/svg">
<path d="M7.19926 15.6916C7.17189 15.4291 7.14451 15.1825 7.11256 14.8836C7.4297 14.8644 7.659 14.8366 7.88715 14.8366C9.28118 14.8324 10.6741 14.8068 12.0681 14.8409C15.0626 14.9156 17.5507 13.1288 18.526 10.7516C19.9292 7.33805 18.0321 3.743 14.7227 2.52828C13.8021 2.19097 12.8701 2.02339 11.8924 2.02339C8.63208 2.02552 5.37288 2.02339 2.11254 2.02339C1.92773 2.02339 1.74521 2.01485 1.55926 2.02979C1.05162 2.06822 0.985451 2.13654 0.960354 2.61794C0.95351 2.76524 0.960354 2.91255 0.960354 3.06092C0.960354 8.62109 0.960354 14.1781 0.960354 19.7382C0.960354 20.0264 0.960354 20.3157 0.960354 20.6423C0.61584 20.6423 0.370573 20.6423 0.142417 20.6423C-0.0218548 20.0392 -0.056078 2.16109 0.103631 1.30395C0.356883 1.27406 0.636374 1.21429 0.912442 1.21429C4.69754 1.20788 8.48264 1.24204 12.2689 1.20148C15.7209 1.16519 18.7314 3.42704 19.6018 6.37418C20.4608 9.28288 19.7341 11.9045 17.3237 14.0073C16.1681 15.0181 14.717 15.5614 13.1815 15.6596C11.2296 15.7877 9.25266 15.6916 7.19926 15.6916Z" fill="black"/>
<path d="M1.9375 20.6382C1.9375 14.7194 1.9375 8.85178 1.9375 2.93083C2.20672 2.90948 2.43374 2.87746 2.66189 2.87746C5.92223 2.87319 9.17915 2.87105 12.4395 2.87746C14.7245 2.88172 16.9558 4.517 17.7281 6.44262C18.1548 7.50684 18.1993 8.5956 17.9563 9.62779C17.5011 11.5598 16.3022 13.02 14.2123 13.6765C13.7251 13.8302 13.2004 13.9412 12.6882 13.9519C11.0318 13.9861 9.37537 13.969 7.72124 13.9647C7.4657 13.9647 7.16796 14.0074 7.10864 13.6573C7.06073 13.3691 7.24325 13.1375 7.57978 13.1076C7.86498 13.0819 8.15816 13.0969 8.44563 13.0969C9.75867 13.0948 11.0751 13.0691 12.3882 13.1012C14.4187 13.1503 16.1961 11.8181 16.7722 10.2266C17.784 7.42678 16.6626 5.4147 14.2933 4.15622C13.8404 3.91498 13.2563 3.79116 12.7304 3.78476C9.57728 3.74847 6.42304 3.76341 3.26765 3.76128C3.16498 3.76128 3.06231 3.78476 2.86609 3.81038C2.84556 4.11352 2.80677 4.42201 2.80677 4.72729C2.80221 9.67156 2.80449 14.6137 2.80449 19.558C2.80449 19.7309 2.81134 19.9017 2.80221 20.0757C2.77597 20.6467 2.71665 20.6873 1.9375 20.6382Z" fill="black"/>
<path d="M4.57777 20.6404C4.24695 20.6404 4.00396 20.6404 3.70508 20.6404C3.70508 15.3097 3.70508 10.0356 3.70508 4.69002C3.99712 4.66227 4.27433 4.61103 4.55268 4.61103C7.10231 4.60463 9.65423 4.66654 12.2016 4.58968C14.3348 4.52564 16.1053 6.18654 16.3323 8.00969C16.5308 9.6044 15.6353 11.5813 13.5614 12.0883C13.0104 12.2228 12.4354 12.3146 11.8662 12.3295C10.6056 12.3658 9.34166 12.3402 8.0811 12.3402C7.821 12.3402 7.55976 12.3402 7.32705 12.3402C6.97112 11.5962 7.05554 11.4532 7.81416 11.4489C9.23328 11.4425 10.6536 11.4126 12.0727 11.4553C13.6378 11.5023 14.8778 10.579 15.26 9.37598C15.6365 8.18795 15.2942 6.97749 14.093 6.04777C13.5443 5.62188 12.9009 5.43614 12.2039 5.43187C9.91661 5.4212 7.63049 5.42547 5.34323 5.43187C5.11508 5.43187 4.88806 5.48311 4.58005 5.5194C4.57777 10.5811 4.57777 15.5894 4.57777 20.6404Z" fill="black"/>
<path d="M7.16935 10.4721C7.13513 9.78998 7.18076 9.71313 7.77967 9.70886C9.1737 9.69605 10.5666 9.70672 11.9606 9.70245C12.223 9.70245 12.4911 9.70459 12.7443 9.65549C13.1276 9.58077 13.4117 9.37368 13.4596 8.97767C13.4893 8.7343 13.5166 8.48559 13.5029 8.24222C13.4573 7.47261 13.1128 7.16947 12.2447 7.1588C10.9043 7.14599 9.5627 7.15453 8.22229 7.15453C7.67586 7.15453 7.12829 7.15453 6.50656 7.15453C6.48375 7.53026 6.44724 7.84087 6.44724 8.15043C6.44268 11.9643 6.44496 15.7771 6.44496 19.5889C6.44496 19.7618 6.45409 19.9326 6.44268 20.1066C6.40617 20.6477 6.31491 20.7032 5.57227 20.6136C5.57227 15.8657 5.57227 11.1104 5.57227 6.3134C5.82324 6.29419 6.02744 6.26644 6.23049 6.26644C8.20176 6.2643 10.173 6.27498 12.1454 6.26217C13.1003 6.25576 13.7813 6.62722 14.2513 7.4011C14.8274 8.35217 14.4064 9.91913 13.4037 10.4368C13.2508 10.5158 13.0592 10.5564 12.8824 10.5564C11.0434 10.5628 9.2045 10.5585 7.36329 10.5542C7.31537 10.5532 7.26746 10.5169 7.16935 10.4721Z" fill="black"/>
<path d="M88.3901 5.52124C88.2189 5.64933 88.0615 5.76675 87.871 5.90765C87.7181 5.79023 87.5698 5.69416 87.4466 5.57888C86.8797 5.04837 86.3595 4.47197 85.7514 3.98843C84.6141 3.08006 83.2748 2.55169 81.8203 2.20585C80.2369 1.83011 78.682 1.89203 77.1557 2.30405C74.654 2.98186 72.6416 4.3236 71.3377 6.47444C70.3783 8.05422 69.7863 9.76422 69.9779 11.5959C70.3567 15.2166 72.2275 17.899 75.8335 19.451C77.7227 20.2633 79.6962 20.417 81.6823 20.0456C83.8201 19.6464 85.6408 18.6302 87.0782 17.0653C87.2151 16.918 87.3223 16.7472 87.4592 16.601C87.7124 16.3363 87.976 16.3085 88.2087 16.5199C88.4505 16.7419 88.3364 16.9063 88.1539 17.1401C87.0462 18.5555 85.5792 19.5257 83.9022 20.2526C82.0314 21.0649 80.0419 21.2443 78.0558 20.9518C75.9955 20.6465 74.1269 19.8129 72.5778 18.4615C71.1404 17.2116 70.1468 15.7065 69.565 13.9346C69.0163 12.2652 68.9387 10.5658 69.3642 8.92203C70.1319 5.94821 71.9549 3.6618 74.9266 2.24C77.1466 1.18006 79.4931 0.905736 81.8899 1.36152C84.5536 1.86854 86.7188 3.19961 88.3205 5.28641C88.3444 5.32697 88.3467 5.38248 88.3901 5.52124Z" fill="black"/>
<path d="M86.993 15.8967C84.7399 18.9708 80.754 20.1909 77.01 19.0818C73.2637 17.9707 70.819 14.8816 70.8145 11.1136C70.8122 7.34773 73.2021 4.34402 76.7271 3.23497C80.64 2.00211 84.6703 3.13037 87.0431 6.38599C86.8812 6.52048 86.7169 6.66138 86.515 6.82897C86.3667 6.72436 86.1956 6.6475 86.0883 6.52368C85.5487 5.89071 84.9441 5.32925 84.2174 4.88627C83.274 4.31093 82.3055 3.81992 81.1476 3.73452C80.6057 3.69396 80.0604 3.49116 79.5323 3.53599C76.4373 3.80071 73.9927 5.04318 72.553 7.74267C71.9587 8.85599 71.5868 10.0237 71.6643 11.263C71.8286 13.9006 73.0264 15.9959 75.4243 17.4828C77.318 18.6559 79.4148 18.7979 81.5127 18.4574C83.217 18.182 84.6795 17.2843 85.8054 15.997C85.8556 15.9394 85.9081 15.886 85.9583 15.8283C86.4214 15.316 86.4876 15.3203 86.993 15.8967Z" fill="black"/>
<path d="M85.6006 7.36155C85.3451 7.4811 85.1386 7.57503 84.915 7.67964C84.1244 6.69228 83.1491 5.93762 81.9022 5.54587C79.3959 4.76132 77.1303 5.17228 75.2389 6.9143C72.1121 9.79312 73.0258 14.7844 77.1189 16.5242C79.6617 17.6034 82.5513 16.9992 84.4313 15.0662C84.4838 15.0128 84.5089 14.9381 84.5591 14.8847C84.9949 14.4246 85.1009 14.4289 85.5595 14.9189C84.3355 17.0718 81.0797 18.2449 78.7286 17.8489C74.6663 17.1647 72.5444 14.1172 72.5102 11.1626C72.4714 7.8088 75.0416 5.03885 78.2962 4.45284C81.2885 3.91593 84.2305 5.10076 85.6006 7.36155Z" fill="black"/>
<path d="M83.5885 13.6124C84.2399 14.0511 84.2559 14.1151 83.8418 14.5421C80.8473 17.6312 75.8438 16.3418 74.5171 12.8193C73.6239 10.4486 74.7384 7.47581 77.4911 6.36356C79.6654 5.48508 82.1922 5.92912 83.8053 7.67221C84.2764 8.17923 84.2741 8.19631 83.5429 8.56777C82.3257 7.10969 80.6807 6.57384 78.7368 6.86631C77.6839 7.02429 76.8614 7.57401 76.1507 8.32013C74.7224 9.81879 74.6836 12.6186 76.4153 14.1813C77.4591 15.1217 78.7026 15.5839 80.1639 15.4494C81.5808 15.316 82.6611 14.6125 83.5885 13.6124Z" fill="black"/>
<path d="M93.3441 0.977661C93.6293 0.977661 93.8791 0.977661 94.1118 0.977661C94.3103 1.54873 94.34 20.2392 94.1438 20.996C93.9042 20.996 93.6521 20.996 93.3418 20.996C93.3441 14.3225 93.3441 7.67463 93.3441 0.977661Z" fill="black"/>
<path d="M90.4947 21.0002C90.2688 21.0109 90.0189 21.0215 89.7109 21.0343C89.7109 14.3224 89.7109 7.67243 89.7109 0.975464C89.9984 0.975464 90.2482 0.975464 90.4878 0.975464C90.684 1.55187 90.6977 20.2669 90.4947 21.0002Z" fill="black"/>
<path d="M92.3235 1.01886C92.3235 7.69448 92.3235 14.321 92.3235 20.939C91.59 21.0585 91.5352 21.0265 91.4919 20.4448C91.4759 20.2483 91.485 20.0519 91.485 19.8545C91.485 13.9314 91.485 8.0083 91.485 2.08307C91.485 1.88667 91.4759 1.69026 91.4941 1.49279C91.5421 0.982566 91.6151 0.93987 92.3235 1.01886Z" fill="black"/>
<path d="M95.8863 20.9965C95.2235 21.0093 95.1756 20.9837 95.1254 20.513C95.1026 20.2952 95.1117 20.07 95.1117 19.8501C95.1117 13.9313 95.1117 8.01032 95.1117 2.0915C95.1117 1.87161 95.1003 1.64639 95.1277 1.42864C95.1847 0.977121 95.2692 0.938692 95.8703 1.01661C96.0232 1.57167 96.046 20.2034 95.8863 20.9965Z" fill="black"/>
<path d="M97.2637 20.9135C97.9014 19.4319 98.5197 18.0133 99.1186 16.5851C99.6011 15.4334 100.048 14.2677 100.526 13.116C101.007 11.9579 101.508 10.8093 101.993 9.6533C102.506 8.43111 103.005 7.20358 103.515 5.98139C104.167 4.42083 104.817 2.86027 105.475 1.30398C105.705 0.756393 106.202 0.96027 106.717 0.928248C109.543 7.58038 112.293 14.2496 115.135 20.9957C114.687 20.9957 114.411 20.9957 114.107 20.9957C111.514 14.8057 108.928 8.63606 106.289 2.3351C106.089 2.60195 105.911 2.7674 105.825 2.96594C104.848 5.26836 103.877 7.56971 102.92 9.88066C101.988 12.1276 101.081 14.382 100.151 16.631C99.6182 17.9204 99.0661 19.2003 98.5197 20.4854C98.2641 21.0789 98.1569 21.1195 97.2637 20.9135Z" fill="black"/>
<path d="M111.734 1.07576C112.45 0.738459 112.749 0.981832 112.965 1.49206C113.84 3.5479 114.715 5.60481 115.574 7.66705C116.499 9.89048 117.395 12.1214 118.322 14.3448C119.143 16.3067 119.99 18.259 120.817 20.2188C120.911 20.4387 120.94 20.6831 121 20.9094C120.2 21.1229 120.143 21.0887 119.897 20.5059C119.056 18.5184 118.195 16.5362 117.361 14.5465C116.764 13.1226 116.212 11.6848 115.615 10.2609C114.905 8.56368 114.157 6.87717 113.446 5.17998C112.949 4.00475 112.486 2.81565 112.004 1.63616C111.929 1.4579 111.838 1.28925 111.734 1.07576Z" fill="black"/>
<path d="M116.992 21.0091C116.633 21.0091 116.377 21.0091 116.094 21.0091C113.305 14.3463 110.525 7.70482 107.742 1.06123C108.635 0.77943 108.699 0.928867 108.996 1.57038C109.483 2.62392 109.901 3.70415 110.351 4.77263C110.884 6.03645 111.427 7.2928 111.953 8.55769C112.529 9.94106 113.083 11.3298 113.662 12.7131C114.496 14.7028 115.345 16.685 116.186 18.6725C116.433 19.2585 116.68 19.8456 116.908 20.438C116.967 20.5896 116.957 20.7668 116.992 21.0091Z" fill="black"/>
<path d="M119.002 20.9893C118.648 20.9893 118.375 20.9893 118.092 20.9893C115.302 14.3308 112.529 7.71279 109.758 1.09481C110.53 0.827958 110.713 0.872788 110.973 1.46414C111.336 2.29352 111.665 3.13571 112.007 3.97149C112.595 5.40183 113.174 6.83324 113.773 8.25931C114.258 9.41105 114.776 10.5489 115.256 11.7007C115.86 13.1438 116.43 14.5987 117.038 16.0418C117.639 17.47 118.269 18.8844 118.873 20.3126C118.955 20.5079 118.955 20.7299 119.002 20.9893Z" fill="black"/>
<path d="M106.218 4.32471C106.791 4.83386 106.905 5.26937 106.601 5.89594C106.05 7.02634 105.614 8.2069 105.127 9.36504C104.51 10.8295 103.889 12.293 103.277 13.7596C102.575 15.4376 101.88 17.1177 101.187 18.7978C100.943 19.3859 100.711 19.9794 100.467 20.5676C100.255 21.0789 100.086 21.1258 99.2793 20.9027C101.585 15.3927 103.89 9.88808 106.218 4.32471Z" fill="black"/>
<path d="M101.295 20.8708C103.262 16.1657 105.228 11.4637 107.198 6.75427C107.74 7.14708 107.918 7.56657 107.708 8.06933C107.03 9.70247 106.333 11.3271 105.646 12.956C105.147 14.1312 104.648 15.3053 104.156 16.4827C103.582 17.8597 103.03 19.2441 102.452 20.6211C102.257 21.0854 102.051 21.126 101.295 20.8708Z" fill="black"/>
<path d="M103.291 20.8771C104.922 16.9715 106.551 13.069 108.186 9.15051C108.737 9.61057 108.879 10.0439 108.65 10.5766C107.604 13.037 106.549 15.491 105.502 17.9514C105.148 18.7871 104.805 19.6251 104.467 20.4673C104.216 21.0938 104.104 21.1451 103.291 20.8771Z" fill="black"/>
<path d="M112.519 18.5245C110.27 18.5245 108.101 18.5245 105.92 18.5245C106.159 17.7186 106.187 17.6909 106.957 17.6887C108.454 17.6845 109.951 17.6845 111.448 17.6887C112.173 17.693 112.173 17.7037 112.519 18.5245Z" fill="black"/>
<path d="M111.621 16.8423C111.432 16.8658 111.229 16.9085 111.027 16.9106C109.823 16.917 108.619 16.9213 107.415 16.9106C106.668 16.9042 106.636 16.8487 106.88 16.0642C107.111 16.0492 107.367 16.0172 107.621 16.0172C108.744 16.0129 109.87 16.0023 110.995 16.0236C111.649 16.0364 111.71 16.1389 111.621 16.8423Z" fill="black"/>
<path d="M110.992 15.1047C109.825 15.1047 108.654 15.1047 107.49 15.1047C107.403 14.3287 107.46 14.2561 108.207 14.2454C108.888 14.2348 109.569 14.2348 110.249 14.2454C110.835 14.2561 110.996 14.444 110.992 15.1047Z" fill="black"/>
<path d="M32.2975 20.0436V6.06895C32.2975 5.69748 31.9758 5.39327 31.5754 5.39327H27.642C27.245 5.39327 26.9199 5.09226 26.9199 4.7176V1.96046C26.9199 1.589 27.2416 1.28479 27.642 1.28479H41.6918C42.0888 1.28479 42.414 1.5858 42.414 1.96046V4.7176C42.414 5.08906 42.0923 5.39327 41.6918 5.39327H37.7584C37.3615 5.39327 37.0363 5.69428 37.0363 6.06895V20.0446C37.0363 20.4161 36.7146 20.7203 36.3142 20.7203H33.0197C32.6215 20.7192 32.2975 20.4161 32.2975 20.0436Z" fill="black"/>
<path d="M59.3554 20.7193H55.819C55.5406 20.7193 55.284 20.5677 55.1653 20.3308L52.2506 14.5187C51.8605 13.8024 51.2388 13.4438 50.3912 13.4438H49.685C49.288 13.4438 48.9629 13.7448 48.9629 14.1195V20.0447C48.9629 20.4161 48.6412 20.7204 48.2408 20.7204H45.0717C44.6747 20.7204 44.3496 20.4193 44.3496 20.0447V1.96266C44.3496 1.5912 44.6713 1.28699 45.0717 1.28699H52.9123C55.0866 1.28699 56.7225 1.79828 57.8165 2.81766C58.9128 3.83704 59.4592 5.31221 59.4592 7.2421C59.4592 8.713 59.085 9.95654 58.3378 10.9759C57.8598 11.6281 57.2552 12.1447 56.5263 12.5215C56.0928 12.7457 56.0232 13.3168 56.4053 13.6135C56.8879 13.9871 57.3031 14.5197 57.6499 15.2061L60.0033 19.7479C60.2372 20.1984 59.8904 20.7193 59.3554 20.7193ZM54.4056 9.11435C54.855 8.76637 55.082 8.1953 55.082 7.40648C55.082 6.59845 54.8562 6.01457 54.4056 5.65592C53.9549 5.29727 53.2112 5.11901 52.1765 5.11901H49.636C49.239 5.11901 48.9139 5.42002 48.9139 5.79469V8.96491C48.9139 9.33637 49.2356 9.64058 49.636 9.64058H52.1765C53.21 9.63845 53.9549 9.46553 54.4056 9.11435Z" fill="black"/>
<path d="M62.3672 20.0436V1.96266C62.3672 1.5912 62.6889 1.28699 63.0893 1.28699H66.3359C66.7329 1.28699 67.0581 1.588 67.0581 1.96266V20.0436C67.0581 20.4151 66.7364 20.7193 66.3359 20.7193H63.0893C62.69 20.7193 62.3672 20.4161 62.3672 20.0436Z" fill="black"/>
<path d="M21.9239 1.14392H19.1757C18.8814 1.14392 18.6156 1.31044 18.5061 1.56769L18.3167 2.00639C18.2118 2.24763 18.2642 2.52836 18.4559 2.71623C19.6047 3.84021 20.4158 5.26841 20.7409 6.85673C20.7477 6.88875 20.7568 6.92291 20.7705 6.95493L22.7076 11.8394C22.8833 12.2803 22.5342 12.7499 22.0311 12.7499H19.9731C19.7358 12.7499 19.5088 12.8545 19.3742 13.0381C17.7863 15.221 15.1111 16.6567 12.0824 16.6567H11.9911L10.6998 19.6465C10.5081 20.0916 10.8572 20.5741 11.3694 20.5741H14.5134C14.8145 20.5741 15.0849 20.399 15.1899 20.1354L16.4436 16.9886C16.5485 16.7239 16.8177 16.5499 17.12 16.5499H24.0697C24.3708 16.5499 24.6412 16.725 24.7461 16.9886L25.9999 20.1354C26.1048 20.4001 26.374 20.5741 26.6763 20.5741H29.7416C30.2538 20.5741 30.6029 20.0884 30.4112 19.6465L22.5855 1.56448C22.4806 1.31044 22.2182 1.14392 21.9239 1.14392Z" fill="black"/>
<path d="M7.19926 15.6916C7.17189 15.4291 7.14451 15.1825 7.11256 14.8836C7.4297 14.8644 7.659 14.8366 7.88715 14.8366C9.28118 14.8324 10.6741 14.8068 12.0681 14.8409C15.0626 14.9156 17.5507 13.1288 18.526 10.7516C19.9292 7.33805 18.0321 3.743 14.7227 2.52828C13.8021 2.19097 12.8701 2.02339 11.8924 2.02339C8.63208 2.02552 5.37288 2.02339 2.11254 2.02339C1.92773 2.02339 1.74521 2.01485 1.55926 2.02979C1.05162 2.06822 0.985451 2.13654 0.960354 2.61794C0.95351 2.76524 0.960354 2.91255 0.960354 3.06092C0.960354 8.62109 0.960354 14.1781 0.960354 19.7382C0.960354 20.0264 0.960354 20.3157 0.960354 20.6423C0.61584 20.6423 0.370573 20.6423 0.142417 20.6423C-0.0218548 20.0392 -0.056078 2.16109 0.103631 1.30395C0.356883 1.27406 0.636374 1.21429 0.912442 1.21429C4.69754 1.20788 8.48264 1.24204 12.2689 1.20148C15.7209 1.16519 18.7314 3.42704 19.6018 6.37418C20.4608 9.28288 19.7341 11.9045 17.3237 14.0073C16.1681 15.0181 14.717 15.5614 13.1815 15.6596C11.2296 15.7877 9.25266 15.6916 7.19926 15.6916Z" fill="black"/>
<path d="M1.9375 20.6382C1.9375 14.7194 1.9375 8.85178 1.9375 2.93083C2.20672 2.90948 2.43374 2.87746 2.66189 2.87746C5.92223 2.87319 9.17915 2.87105 12.4395 2.87746C14.7245 2.88172 16.9558 4.517 17.7281 6.44262C18.1548 7.50684 18.1993 8.5956 17.9563 9.62779C17.5011 11.5598 16.3022 13.02 14.2123 13.6765C13.7251 13.8302 13.2004 13.9412 12.6882 13.9519C11.0318 13.9861 9.37537 13.969 7.72124 13.9647C7.4657 13.9647 7.16796 14.0074 7.10864 13.6573C7.06073 13.3691 7.24325 13.1375 7.57978 13.1076C7.86498 13.0819 8.15816 13.0969 8.44563 13.0969C9.75867 13.0948 11.0751 13.0691 12.3882 13.1012C14.4187 13.1503 16.1961 11.8181 16.7722 10.2266C17.784 7.42678 16.6626 5.4147 14.2933 4.15622C13.8404 3.91498 13.2563 3.79116 12.7304 3.78476C9.57728 3.74847 6.42304 3.76341 3.26765 3.76128C3.16498 3.76128 3.06231 3.78476 2.86609 3.81038C2.84556 4.11352 2.80677 4.42201 2.80677 4.72729C2.80221 9.67156 2.80449 14.6137 2.80449 19.558C2.80449 19.7309 2.81134 19.9017 2.80221 20.0757C2.77597 20.6467 2.71665 20.6873 1.9375 20.6382Z" fill="black"/>
<path d="M4.57777 20.6404C4.24695 20.6404 4.00396 20.6404 3.70508 20.6404C3.70508 15.3097 3.70508 10.0356 3.70508 4.69002C3.99712 4.66227 4.27433 4.61103 4.55268 4.61103C7.10231 4.60463 9.65423 4.66654 12.2016 4.58968C14.3348 4.52564 16.1053 6.18654 16.3323 8.00969C16.5308 9.6044 15.6353 11.5813 13.5614 12.0883C13.0104 12.2228 12.4354 12.3146 11.8662 12.3295C10.6056 12.3658 9.34166 12.3402 8.0811 12.3402C7.821 12.3402 7.55976 12.3402 7.32705 12.3402C6.97112 11.5962 7.05554 11.4532 7.81416 11.4489C9.23328 11.4425 10.6536 11.4126 12.0727 11.4553C13.6378 11.5023 14.8778 10.579 15.26 9.37598C15.6365 8.18795 15.2942 6.97749 14.093 6.04777C13.5443 5.62188 12.9009 5.43614 12.2039 5.43187C9.91661 5.4212 7.63049 5.42547 5.34323 5.43187C5.11508 5.43187 4.88806 5.48311 4.58005 5.5194C4.57777 10.5811 4.57777 15.5894 4.57777 20.6404Z" fill="black"/>
<path d="M7.16935 10.4721C7.13513 9.78998 7.18076 9.71313 7.77967 9.70886C9.1737 9.69605 10.5666 9.70672 11.9606 9.70245C12.223 9.70245 12.4911 9.70459 12.7443 9.65549C13.1276 9.58077 13.4117 9.37368 13.4596 8.97767C13.4893 8.7343 13.5166 8.48559 13.5029 8.24222C13.4573 7.47261 13.1128 7.16947 12.2447 7.1588C10.9043 7.14599 9.5627 7.15453 8.22229 7.15453C7.67586 7.15453 7.12829 7.15453 6.50656 7.15453C6.48375 7.53026 6.44724 7.84087 6.44724 8.15043C6.44268 11.9643 6.44496 15.7771 6.44496 19.5889C6.44496 19.7618 6.45409 19.9326 6.44268 20.1066C6.40617 20.6477 6.31491 20.7032 5.57227 20.6136C5.57227 15.8657 5.57227 11.1104 5.57227 6.3134C5.82324 6.29419 6.02744 6.26644 6.23049 6.26644C8.20176 6.2643 10.173 6.27498 12.1454 6.26217C13.1003 6.25576 13.7813 6.62722 14.2513 7.4011C14.8274 8.35217 14.4064 9.91913 13.4037 10.4368C13.2508 10.5158 13.0592 10.5564 12.8824 10.5564C11.0434 10.5628 9.2045 10.5585 7.36329 10.5542C7.31537 10.5532 7.26746 10.5169 7.16935 10.4721Z" fill="black"/>
</svg>
